<svg id="visual" viewBox="0 0 960 300" width="960" height="300" xmlns="http://www.w3.org/2000/svg" xmlns:xlink="http://www.w3.org/1999/xlink" version="1.1"><rect x="0" y="0" width="960" height="300" fill="#FFFFFF"></rect><path d="M0 151L17.8 159.7C35.7 168.3 71.3 185.7 106.8 190.8C142.3 196 177.7 189 213.2 179.5C248.7 170 284.3 158 320 155C355.7 152 391.3 158 426.8 163.2C462.3 168.3 497.7 172.7 533.2 179C568.7 185.3 604.3 193.7 640 195.8C675.7 198 711.3 194 746.8 184.3C782.3 174.7 817.7 159.3 853.2 154.3C888.7 149.3 924.3 154.7 942.2 157.3L960 160L960 0L942.2 0C924.3 0 888.7 0 853.2 0C817.7 0 782.3 0 746.8 0C711.3 0 675.7 0 640 0C604.3 0 568.7 0 533.2 0C497.7 0 462.3 0 426.8 0C391.3 0 355.7 0 320 0C284.3 0 248.7 0 213.2 0C177.7 0 142.3 0 106.8 0C71.3 0 35.7 0 17.8 0L0 0Z" fill="#ebf2fa"></path><path d="M0 119L17.8 123.5C35.7 128 71.3 137 106.8 145.2C142.3 153.3 177.7 160.7 213.2 156.8C248.7 153 284.3 138 320 134.5C355.7 131 391.3 139 426.8 140.8C462.3 142.7 497.7 138.3 533.2 142.3C568.7 146.3 604.3 158.7 640 160C675.7 161.3 711.3 151.7 746.8 146.5C782.3 141.3 817.7 140.7 853.2 144.3C888.7 148 924.3 156 942.2 160L960 164L960 0L942.2 0C924.3 0 888.7 0 853.2 0C817.7 0 782.3 0 746.8 0C711.3 0 675.7 0 640 0C604.3 0 568.7 0 533.2 0C497.7 0 462.3 0 426.8 0C391.3 0 355.7 0 320 0C284.3 0 248.7 0 213.2 0C177.7 0 142.3 0 106.8 0C71.3 0 35.7 0 17.8 0L0 0Z" fill="#becee3"></path><path d="M0 123L17.8 118.8C35.7 114.7 71.3 106.3 106.8 109.2C142.3 112 177.7 126 213.2 132.7C248.7 139.3 284.3 138.7 320 132.3C355.7 126 391.3 114 426.8 111.5C462.3 109 497.7 116 533.2 120.7C568.7 125.3 604.3 127.7 640 127.7C675.7 127.7 711.3 125.3 746.8 119.5C782.3 113.7 817.7 104.3 853.2 107.3C888.7 110.3 924.3 125.7 942.2 133.3L960 141L960 0L942.2 0C924.3 0 888.7 0 853.2 0C817.7 0 782.3 0 746.8 0C711.3 0 675.7 0 640 0C604.3 0 568.7 0 533.2 0C497.7 0 462.3 0 426.8 0C391.3 0 355.7 0 320 0C284.3 0 248.7 0 213.2 0C177.7 0 142.3 0 106.8 0C71.3 0 35.7 0 17.8 0L0 0Z" fill="#93abcd"></path><path d="M0 89L17.8 89.3C35.7 89.7 71.3 90.3 106.8 87.7C142.3 85 177.7 79 213.2 76.2C248.7 73.3 284.3 73.7 320 75.5C355.7 77.3 391.3 80.7 426.8 83.2C462.3 85.7 497.7 87.3 533.2 89.3C568.7 91.3 604.3 93.7 640 94.5C675.7 95.3 711.3 94.7 746.8 91.5C782.3 88.3 817.7 82.7 853.2 82.3C888.7 82 924.3 87 942.2 89.5L960 92L960 0L942.2 0C924.3 0 888.7 0 853.2 0C817.7 0 782.3 0 746.8 0C711.3 0 675.7 0 640 0C604.3 0 568.7 0 533.2 0C497.7 0 462.3 0 426.8 0C391.3 0 355.7 0 320 0C284.3 0 248.7 0 213.2 0C177.7 0 142.3 0 106.8 0C71.3 0 35.7 0 17.8 0L0 0Z" fill="#6a89b7"></path><path d="M0 43L17.8 44C35.7 45 71.3 47 106.8 46.7C142.3 46.3 177.7 43.7 213.2 49C248.7 54.3 284.3 67.7 320 72.7C355.7 77.7 391.3 74.3 426.8 70.5C462.3 66.7 497.7 62.3 533.2 58C568.7 53.7 604.3 49.3 640 52C675.7 54.7 711.3 64.3 746.8 70.3C782.3 76.3 817.7 78.7 853.2 75.3C888.7 72 924.3 63 942.2 58.5L960 54L960 0L942.2 0C924.3 0 888.7 0 853.2 0C817.7 0 782.3 0 746.8 0C711.3 0 675.7 0 640 0C604.3 0 568.7 0 533.2 0C497.7 0 462.3 0 426.8 0C391.3 0 355.7 0 320 0C284.3 0 248.7 0 213.2 0C177.7 0 142.3 0 106.8 0C71.3 0 35.7 0 17.8 0L0 0Z" fill="#4067a0"></path><path d="M0 49L17.8 47.3C35.7 45.7 71.3 42.3 106.8 41.3C142.3 40.3 177.7 41.7 213.2 43.5C248.7 45.3 284.3 47.7 320 45.5C355.7 43.3 391.3 36.7 426.8 36.2C462.3 35.7 497.7 41.3 533.2 40.8C568.7 40.3 604.3 33.7 640 33.5C675.7 33.3 711.3 39.7 746.8 43.2C782.3 46.7 817.7 47.3 853.2 46.7C888.7 46 924.3 44 942.2 43L960 42L960 0L942.2 0C924.3 0 888.7 0 853.2 0C817.7 0 782.3 0 746.8 0C711.3 0 675.7 0 640 0C604.3 0 568.7 0 533.2 0C497.7 0 462.3 0 426.8 0C391.3 0 355.7 0 320 0C284.3 0 248.7 0 213.2 0C177.7 0 142.3 0 106.8 0C71.3 0 35.7 0 17.8 0L0 0Z" fill="#064789"></path></svg>